<?xml version="1.0" encoding="iso-8859-1"?>
<!-- Uploaded to: SVG Repo, www.svgrepo.com, Generator: SVG Repo Mixer Tools -->
<svg version="1.1" id="Layer_1" xmlns="http://www.w3.org/2000/svg" xmlns:xlink="http://www.w3.org/1999/xlink" 
	 viewBox="0 0 512.006 512.006" xml:space="preserve">
<rect x="131.929" y="224.008" transform="matrix(-0.7071 -0.7071 0.7071 -0.7071 11.3461 719.3946)" style="fill:#C4A413;" width="45.471" height="266.679"/>
<g>
	<path style="fill:#E6C017;" d="M285.776,323.504c-25.983,0-50.411-10.117-68.785-28.492c-37.928-37.928-37.928-99.643,0-137.571
		L367.774,6.66c8.88-8.88,23.275-8.881,32.153,0.001c8.88,8.878,8.88,23.275,0,32.153L249.144,189.596
		c-20.199,20.199-20.199,53.065,0,73.263c9.784,9.783,22.794,15.173,36.632,15.173c13.837,0,26.847-5.388,36.632-15.173
		L473.19,112.076c8.88-8.877,23.275-8.88,32.153,0s8.88,23.276,0,32.154L354.562,295.012
		C336.189,313.386,311.76,323.504,285.776,323.504z"/>
	<circle style="fill:#E6C017;" cx="45.149" cy="466.861" r="45.146"/>
</g>
<g>
	<path style="fill:#D4B115;" d="M505.343,144.231c8.878-8.878,8.878-23.276,0-32.154s-23.275-8.877-32.153,0L322.408,262.859
		c-9.784,9.783-22.794,15.173-36.631,15.172c-13.838,0-26.847-5.388-36.632-15.173l0,0l-32.153,32.153l0,0
		c18.374,18.373,42.803,28.49,68.785,28.492c25.984,0,50.412-10.119,68.785-28.492L505.343,144.231z"/>
	<path style="fill:#D4B115;" d="M77.072,434.931c-0.848-0.848-1.728-1.642-2.624-2.408l-63.63,63.63
		c0.766,0.896,1.561,1.777,2.408,2.624c17.631,17.631,46.215,17.631,63.846,0S94.702,452.562,77.072,434.931z"/>
</g>
</svg>